<svg xmlns="http://www.w3.org/2000/svg" xml:space="preserve" viewBox="0 0 1000 390">
  <path stroke="#000" stroke-linecap="round" stroke-linejoin="round" stroke-width="4.30158854" d="m180.99389 2.587831-65.5131 191.064039-112.875172.38973L180.99389 2.587831M51.880357 387.80878l65.513113-191.06404 112.87512-.38972L51.880357 387.80878"/>
  <g style="line-height:1.25" word-spacing="0">
    <path d="M745.08906 440.09818q-4.4 19.6-18.8 31.6-14.4 11.6-33.6 11.6h-155.2q-19.6 0-29.2-11.6-9.2-12-4.8-31.6l40-189.6q4.4-19.6 18.8-31.2 14.4-12 33.6-12h155.2q19.6 0 28.8 12 9.6 11.6 5.2 31.2zm-107.6-198-44 206.8h57.6l44-206.8zm350.03717 86c13.06667 0 22.66667 4 28.79997 12 6.4 7.73333 8.1333 18.13333 5.2 31.2l-14.4 68.8c-2.9333 13.06667-9.19999 23.6-18.79997 31.6-9.6 7.73333-20.8 11.6-33.6 11.6h-155.2c-13.06667 0-22.66667-3.86667-28.8-11.6-6.13333-8-7.86667-18.53333-5.2-31.6l7.50127-28.90683 25.23692-.59236 8.16739 38.43592 106.19457-.16348 18.89985-86.37325h-106.4c-13.06667 0-22.8-3.86667-29.2-11.6-6.13333-8-7.73333-18.53333-4.8-31.6l14.4-68.8c2.93333-13.06667 9.2-23.46667 18.8-31.2 9.6-8 20.8-12 33.6-12h155.19997c13.0667 0 22.6667 4 28.8 12 6.4 7.73333 8.1333 18.13333 5.2 31.2l-6.6127 25.64879-21.4459.0958-11.1966-33.28703-108.22996-.40962-18.51481 85.55206z" aria-label="OS" font-family="AERO" font-size="400" font-weight="400" letter-spacing="-13.962286" style="-inkscape-font-specification:AERO" transform="translate(-477.45803 -291.18373) scale(1.40825)"/>
  </g>
</svg>
