<svg xmlns="http://www.w3.org/2000/svg" xml:space="preserve" viewBox="0 0 166.41692 74.56836"><g fill="#000"><path d="M301.77148 226.3125c-20.66816 0-37.45898 16.71047-37.45898 37.28516 0 20.57469 16.79082 37.2832 37.45898 37.2832 20.66816 0 37.45899-16.7085 37.45899-37.2832s-16.79082-37.28516-37.45899-37.28516zm0 1c20.12952 0 36.45899 16.25423 36.45899 36.28516 0 20.03093-16.32947 36.2832-36.45899 36.2832s-36.45898-16.25226-36.45898-36.2832 16.32947-36.28516 36.45898-36.28516zm0 1.13672c-1.55497 0-3.08256.10992-4.58007.30273a.50005.50005 0 0 0-.3711.25196l-27.19922 48.64648a.50005.50005 0 0 0-.0195.45117c1.02969 2.26121 2.28894 4.39743 3.75586 6.37305a.50005.50005 0 0 0 .40039.20117l47.48633.0977a.50005.50005 0 0 0 .43555-.7461l-2.25-4.00781a.50005.50005 0 0 0-.43555-.25391h-43.27734c-.67148.00001-1.17538-.86191-.84571-1.43945l28.06446-49.11133a.50005.50005 0 0 0-.42383-.74804c-.23262-.005-.47746-.0176-.74024-.0176zm6.88868.67187a.50005.50005 0 0 0-.52539.74805l26.46289 44.26367a.50005.50005 0 0 0 .90625-.10742c1.02552-3.29458 1.58007-6.7972 1.58007-10.42773 0-17.07207-12.21299-31.28941-28.42382-34.47657zm-3.33204.3125a.50005.50005 0 0 0-.42968.25196l-27.08789 47.40429a.50005.50005 0 0 0 .43359.74805h4.56055a.50005.50005 0 0 0 .43359-.25195l21.25781-36.9961a.50005.50005 0 0 0 .004-.002c.001-.003.003-.005.004-.008.014-.0271.0287-.0539.0449-.0781a.50005.50005 0 0 0 .002-.002c.0181-.027.0377-.052.0606-.0781.12495-.14272.31091-.24753.53906-.30664.14781-.0379.27128-.0465.37305-.0332.17782.037.34823.13153.49023.27539l.38281.50195 24.60157 41.1504a.50005.50005 0 0 0 .85547.006c.87282-1.41013 1.64579-2.88567 2.31445-4.41796a.50005.50005 0 0 0-.0293-.45704l-28.37695-47.46289a.50005.50005 0 0 0-.4336-.24414zm-11.94335.0195c-15.45937 3.74422-26.92579 17.6025-26.92579 34.14454 0 3.80847.61463 7.47288 1.73829 10.90625a.50005.50005 0 0 0 .9121.0879l24.82813-44.40821a.50005.50005 0 0 0-.55273-.73047zm8.25976.004-27.49805 48.12109h.28907a.50005.50005 0 0 0-.4336.25196c-.72438 1.269.25341 2.93556 1.71485 2.93554h42.98437l1.6875 3.00586-46.34765-.0957c-1.31843-1.80175-2.45941-3.7392-3.40821-5.78516l26.92578-48.1621c1.34264-.16456 2.70329-.2659 4.08594-.27149zm7.99609.98438c15.14718 3.5485 26.44336 16.98753 26.44336 33.15625 0 3.1093-.48318 6.09438-1.26367 8.95507zm-17.20312.37695-23.58008 42.17578c-.86228-2.99319-1.39844-6.12553-1.39844-9.39648 0-15.64323 10.57606-28.72641 24.97852-32.7793zm12.90625.10742 27.79297 46.48828c-.50989 1.14617-1.1083 2.24124-1.73633 3.31641l-24.16016-40.4082a.50005.50005 0 0 0-.0332-.0469l-.42969-.56445a.50005.50005 0 0 0-.0391-.0449c-.27228-.28037-.62763-.49326-1.03516-.57227a.50005.50005 0 0 0-.0215-.004c-.28654-.0428-.55-.002-.7793.0566-.3778.0974-.75596.28741-1.04297.61524-.05.0571-.0973.11873-.14062.18359a.50005.50005 0 0 0-.0273.0469l-.002.002c-.017.0272-.0315.0562-.0469.084a.50005.50005 0 0 0-.01.006l-21.11719 36.75391h-3.41015zm.0547 12.53711a.50005.50005 0 0 0-.42969.25586l-2.22461 3.97852a.50005.50005 0 0 0 .006.5l17.90234 30.04882a.50005.50005 0 0 0-.002.006l.01.0137.008.0117c.0177.0256.0356.0532.0508.082l.004.008.002.004h.002l3.97461 6.89258a.50005.50005 0 0 0 0 .002c.009.0153.018.0319.0254.0469.0698.14415.091.31292.0703.51367a.50005.50005 0 0 0-.002.0469c-.005.50152-.42254 1.0142-.93945 1.01367l-47.48242-.0957a.50005.50005 0 0 0-.36524.84179c1.27327 1.35171 2.65275 2.60067 4.125 3.73828a.50005.50005 0 0 0 .30469.10547h42.66602a.50005.50005 0 0 0 .30468-.10547c2.45809-1.89935 4.66028-4.11008 6.53907-6.58203a.50005.50005 0 0 0 .0312-.55859l-24.14258-40.52344a.50005.50005 0 0 0-.4375-.24414zm.0215 1.5 23.51563 39.46875c-1.7484 2.25445-3.76857 4.28788-6.02149 6.04492h-42.2832c-1.05333-.8214-2.01208-1.74785-2.96094-2.68359l46.1836.0937a.50005.50005 0 0 0 .002 0c1.1162.001 1.91456-.9644 1.93359-1.98633.0298-.32481.003-.68276-.16211-1.02344a.50005.50005 0 0 0 0-.002c-.0189-.0388-.0395-.0751-.0605-.11133v-.002l-3.95704-6.85742-.0156-.0273-.008-.0156a.50005.50005 0 0 0-.004-.002c-.009-.0167-.0214-.0323-.0312-.0488a.50005.50005 0 0 0 0-.01l-.0137-.0234-.002-.004-17.77735-29.83985zm-3.9707 5.31836a.50005.50005 0 0 0-.42969.25l-15.25781 26.55664a.50005.50005 0 0 0 .43359.75h31.07813a.50005.50005 0 0 0 .42968-.75586l-15.82031-26.55664a.50005.50005 0 0 0-.43359-.24414zm.0117 1.49023 14.93164 25.06641H287.0586Zm-16.57227 41.63282a.50005.50005 0 0 0-.24219.9375c5.0713 2.8022 10.91049 4.40429 17.125 4.40429 6.21455 0 12.05164-1.60207 17.12305-4.40429a.50005.50005 0 0 0-.24219-.9375zm2.2168 1h29.33008c-4.45383 2.10407-9.40037 3.34179-14.66407 3.34179-5.26399 0-10.21203-1.2375-14.66601-3.34179zm14.66525-67.59185c-20.39886 0-36.95847 16.48201-36.95847 36.78484 0 20.30284 16.55961 36.78432 36.95847 36.78432s36.95898-16.48148 36.95898-36.78432c0-20.30283-16.56012-36.78484-36.95898-36.78484zm0 2.13631c.24495 0 .48644.0131.73019.0181l-28.06392 49.1112h-.00052c-.52703.92327.21356 2.18695 1.28002 2.18694h43.27747l2.2505 4.00751-47.4865-.0966c-1.44561-1.94692-2.68527-4.05274-3.70055-6.28231l27.19834-48.64561c1.47883-.19041 2.98368-.2992 4.51497-.2992zm6.79286.663c15.98143 3.14205 28.01948 17.15182 28.01948 33.98553 0 3.57977-.54517 7.03167-1.55597 10.27896zm-3.23081.32247 28.37605 47.46325c-.65928 1.51081-1.42088 2.9662-2.281 4.3558l-24.61762-41.17423-.43098-.56534c-.20923-.21544-.47447-.37152-.77049-.42891-.19502-.0291-.39099-.003-.58188.046-.30341.0782-.58553.22549-.79168.46096-.0364.0416-.0701.0853-.10077.13125l-.00052.001c-.0297.0444-.0566.0908-.0806.13849l.014-.0289-21.26227 37.00394h-4.56045zm-11.8308.005-24.82897 44.40866c-1.10774-3.38473-1.71411-6.99561-1.71411-10.75025 0-16.31107 11.30294-29.96729 26.54308-33.65841zm11.90367 14.02291 24.14426 40.52466c-1.85182 2.43647-4.02279 4.61664-6.44663 6.48953h-42.6651c-1.45162-1.12167-2.81126-2.35359-4.06642-3.68608l47.48289.0966h.001c.82003.00085 1.43228-.74422 1.43919-1.50947.0275-.26639.002-.53562-.11782-.78289-.0134-.0275-.028-.0547-.0434-.0811l-3.98115-6.90293.0145.0274c-.0294-.0572-.0631-.11262-.10077-.16484l.0553.0827-17.94102-30.11392zm-3.95325 6.81871 15.82126 26.55652h-31.07924zm-16.56333 43.12398h33.76331c-4.99986 2.76269-10.75293 4.34082-16.88165 4.34082-6.12869 0-11.88193-1.57816-16.88166-4.34082z" color="#000" style="-inkscape-stroke:none" transform="translate(-264.3125 -226.3125)"/><path d="m382.58129 261.61397 4.22129 2.62229-2.43044 28.01394-7.54714-4.60502.064-.89545.064-.38375.89544-10.10548.51167-6.01212.25584-2.68626zm-30.95603 3.96542-4.22127-2.6223 2.43043-28.01392 7.54714 4.60503-1.02333 11.38465-.57564 6.90754-.19187 1.79084zm1.79085 19.44347-7.03547 10.42527q-1.79083-.51167-1.59895-2.49439l2.49439-28.46165 3.64565 2.23857.31978.19186 3.51773 2.1746-.12791 1.91877-.44771 5.24462zm6.58776-45.47466-9.91361-6.0761q.63959-1.8548 2.68626-1.8548h33.57835l-5.30859 7.93087h-15.79779zm27.82203-7.80297q1.79086.51165 1.59898 2.49439l-2.49439 28.46164-7.48316-4.60503.57563-7.16338.7675-8.76235zm-13.62319 55.89995 9.91362 6.07607q-.63961 1.85482-2.6863 1.85482H347.8517l5.30857-7.93089h15.79783zm51.21816-26.67081-4.34921 6.58774h-2.1746l-6.52377-3.96544 7.16338-3.96544h3.64563zm-24.04848-7.73902 1.08728-12.408h1.98273l2.81417 5.82025 2.87816 15.60593-6.14005-3.77357zm25.13577 8.37861 4.22127 2.6223-2.43042 28.01394-7.54712-4.60503.0639-.89545.064-.38375.89544-10.10548.51166-6.01212.25584-2.68626zm-30.95602 3.96542-4.22128-2.6223 2.43042-28.01391 7.54713 4.60503-1.02334 11.38465-.57563 6.90754-.19188 1.79084zm8.3786-26.03119-9.91362-6.0761q.63957-1.8548 2.68627-1.8548h33.57836l-5.30859 7.93088h-15.79781zm14.19882 48.09698 9.91361 6.07607q-.63959 1.85483-2.68626 1.85483h-33.57836l5.30859-7.93089h15.79781zm-15.60593-20.08306h-3.64564l-2.23857-1.34312 4.34922-6.58776h2.17459l6.52378 3.96544zm18.16428 6.39587-1.08729 12.40799h-1.98272l-2.81417-5.82024-2.87817-15.60593 6.14006 3.77355z" transform="translate(-264.3125 -226.3125)"/></g></svg>