<?xml version="1.0" standalone="no"?>
<!DOCTYPE svg PUBLIC "-//W3C//DTD SVG 20010904//EN"
 "http://www.w3.org/TR/2001/REC-SVG-20010904/DTD/svg10.dtd">
<svg version="1.0" xmlns="http://www.w3.org/2000/svg"
 width="260.000000pt" height="260.000000pt" viewBox="0 0 260.000000 260.000000"
 preserveAspectRatio="xMidYMid meet">
<metadata>
Created by potrace 1.14, written by Peter Selinger 2001-2017
</metadata>
<g transform="translate(0.000000,260.000000) scale(0.100000,-0.100000)"
fill="#000000" stroke="none">
<path d="M1630 2498 c-52 -56 -125 -134 -161 -173 -36 -38 -77 -82 -90 -96
-64 -70 -238 -257 -269 -289 -19 -20 -62 -65 -94 -101 -32 -35 -91 -98 -130
-139 -62 -66 -233 -249 -325 -349 -17 -18 -31 -39 -31 -45 0 -10 88 -12 380
-11 209 0 380 -2 380 -5 0 -3 -11 -36 -24 -75 -58 -166 -243 -707 -311 -905
-40 -118 -80 -234 -89 -257 -21 -60 -3 -65 47 -11 198 210 406 433 443 474 32
35 219 236 274 294 19 21 85 91 145 156 61 65 126 135 145 155 108 114 150
162 150 173 0 10 -83 12 -380 11 l-379 -1 6 26 c3 14 13 43 20 65 8 22 46 130
83 240 38 110 114 333 170 495 160 464 162 470 142 470 -4 0 -50 -46 -102
-102z"/>
</g>
</svg>
